<?xml version="1.0" standalone="no"?>
<!DOCTYPE svg PUBLIC "-//W3C//DTD SVG 20010904//EN"
 "http://www.w3.org/TR/2001/REC-SVG-20010904/DTD/svg10.dtd">
<svg version="1.0" xmlns="http://www.w3.org/2000/svg"
 width="480.000000pt" height="480.000000pt" viewBox="0 0 480.000000 480.000000"
 preserveAspectRatio="xMidYMid meet">
<metadata>
Created by potrace 1.11, written by Peter Selinger 2001-2013
</metadata>
<g transform="translate(0.000000,480.000000) scale(0.100000,-0.100000)"
fill="#000000" stroke="none">
<path d="M941 4192 c-6 -31 -41 -196 -76 -367 -36 -170 -68 -326 -71 -345 -3
-19 -9 -51 -14 -70 -5 -19 -12 -53 -16 -75 -3 -22 -8 -43 -10 -46 -2 -4 -6
-24 -9 -45 -4 -22 -8 -47 -11 -56 -3 -9 -7 -27 -9 -40 -3 -13 -7 -34 -10 -48
-3 -14 -7 -34 -9 -45 -20 -96 -69 -333 -71 -345 -2 -8 -6 -26 -9 -40 -11 -48
-135 -645 -141 -680 -3 -19 -10 -51 -15 -70 -5 -19 -11 -46 -13 -60 -3 -14
-19 -95 -37 -180 -18 -85 -34 -164 -35 -175 -2 -11 -10 -49 -18 -85 -8 -36
-18 -82 -21 -102 -3 -21 -11 -59 -17 -85 -6 -27 -13 -59 -15 -73 -3 -14 -11
-53 -19 -86 -8 -34 -16 -73 -19 -85 -2 -13 -21 -105 -41 -204 -21 -99 -39
-193 -42 -209 l-5 -29 44 34 c23 19 54 44 68 55 14 12 228 187 475 389 248
201 468 381 490 399 22 19 119 97 215 176 96 78 195 158 219 178 24 21 51 42
60 48 22 15 1247 16 1276 1 17 -9 211 -162 225 -178 3 -3 43 -36 90 -74 47
-38 99 -80 116 -94 17 -14 40 -33 50 -41 35 -27 129 -105 134 -110 3 -3 25
-21 50 -40 25 -19 47 -37 50 -40 3 -3 30 -25 60 -50 30 -25 64 -53 75 -62 11
-9 88 -71 170 -139 83 -67 168 -136 190 -154 22 -18 92 -75 155 -126 242 -197
219 -189 194 -74 -13 62 -42 200 -89 430 -8 39 -17 81 -20 95 -9 39 -26 123
-31 150 -2 14 -7 36 -10 50 -3 14 -8 34 -10 45 -5 31 -62 300 -80 385 -9 41
-18 86 -20 100 -2 14 -11 57 -20 95 -9 39 -18 81 -20 95 -3 14 -22 108 -44
210 -21 102 -41 196 -43 210 -3 14 -13 61 -22 105 -9 44 -19 91 -21 103 -3 13
-21 101 -40 195 -20 95 -38 180 -40 190 -2 10 -5 26 -8 35 -3 9 -8 35 -11 57
-4 22 -12 67 -20 100 -8 33 -19 85 -25 115 -13 68 -12 64 -50 245 -18 83 -33
157 -35 165 -32 160 -87 425 -88 426 -1 1 -60 -32 -132 -74 -71 -41 -148 -85
-170 -97 -22 -12 -146 -83 -275 -157 -129 -75 -253 -146 -275 -158 -22 -12
-146 -83 -275 -158 -129 -74 -254 -145 -277 -159 l-43 -24 -317 182 c-175 100
-392 225 -483 277 -91 52 -181 104 -200 115 -94 53 -389 221 -416 238 l-31 19
-12 -58z m609 -901 c102 -61 192 -115 200 -121 8 -5 58 -35 111 -66 l96 -56
-1 -197 -1 -196 -412 -2 -411 -1 4 26 c3 15 20 97 39 183 19 86 36 167 39 180
3 13 16 74 29 134 14 61 33 145 42 188 l17 78 31 -20 c18 -10 115 -69 217
-130z m1975 31 c3 -20 10 -53 15 -72 5 -19 11 -46 14 -60 2 -14 20 -97 40
-185 19 -88 37 -172 40 -188 3 -15 7 -35 10 -45 3 -9 8 -30 11 -47 3 -16 8
-40 11 -52 l4 -22 -414 1 -413 1 0 197 0 198 31 16 c17 9 164 96 326 195 l295
179 12 -39 c6 -22 14 -56 18 -77z"/>
</g>
</svg>
